HIERARCHY
ROOT Hips
{
	OFFSET 0.000000 88.474243 0.000000
	CHANNELS 6 Xposition Yposition Zposition Zrotation Yrotation Xrotation 
	JOINT Hips_Spine
	{
		OFFSET 0.000000 0.000000 0.000000
		CHANNELS 3 Zrotation Yrotation Xrotation
		JOINT Spine
		{
			OFFSET 0.005100 8.711998 -0.691000
			CHANNELS 3 Zrotation Yrotation Xrotation
			JOINT Spine1
			{
				OFFSET -0.009200 8.660301 -1.275000
				CHANNELS 3 Zrotation Yrotation Xrotation
				JOINT Spine2
				{
					OFFSET 0.006300 9.852501 -1.857000
					CHANNELS 3 Zrotation Yrotation Xrotation
					JOINT Spine2_Neck
					{
						OFFSET 0.000000 0.000000 0.000000
						CHANNELS 3 Zrotation Yrotation Xrotation
						JOINT Neck
						{
							OFFSET 0.016300 11.420799 -0.263300
							CHANNELS 3 Zrotation Yrotation Xrotation
							End Site #name: Head
							{
								OFFSET -0.019200 9.262405 2.362500
							}
						}
					}
					JOINT Spine2_LeftShoulder
					{
						OFFSET 0.000000 0.000000 0.000000
						CHANNELS 3 Zrotation Yrotation Xrotation
						JOINT LeftShoulder
						{
							OFFSET 5.616900 6.732201 -0.345700
							CHANNELS 3 Zrotation Yrotation Xrotation
							JOINT LeftArm
							{
								OFFSET 10.664888 -0.183372 -2.440700
								CHANNELS 3 Zrotation Yrotation Xrotation
								JOINT LeftForeArm
								{
									OFFSET 27.459126 0.000000 0.000000
									CHANNELS 3 Zrotation Yrotation Xrotation
									End Site #name: LeftHand
									{
										OFFSET 21.306858 0.000000 0.000000
									}
								}
							}
						}
					}
					JOINT Spine2_RightShoulder
					{
						OFFSET 0.000000 0.000000 0.000000
						CHANNELS 3 Zrotation Yrotation Xrotation
						JOINT RightShoulder
						{
							OFFSET -5.580300 6.737503 -0.344400
							CHANNELS 3 Zrotation Yrotation Xrotation
							JOINT RightArm
							{
								OFFSET -10.679335 -0.188484 -2.383900
								CHANNELS 3 Zrotation Yrotation Xrotation
								JOINT RightForeArm
								{
									OFFSET -27.503529 0.000000 0.000000
									CHANNELS 3 Zrotation Yrotation Xrotation
									End Site #name: RightHand
									{
										OFFSET -21.306808 0.000000 0.000000
									}
								}
							}
						}
					}
				}
			}
		}
	}
	JOINT Hips_LeftUpLeg
	{
		OFFSET 0.000000 0.000000 0.000000
		CHANNELS 3 Zrotation Yrotation Xrotation
		JOINT LeftUpLeg
		{
			OFFSET 6.857700 -6.739601 0.312100
			CHANNELS 3 Zrotation Yrotation Xrotation
			JOINT LeftLeg
			{
				OFFSET -0.367590 -34.731552 -4.572400
				CHANNELS 3 Zrotation Yrotation Xrotation
				End Site #name: LeftFoot
				{
					OFFSET 0.367590 -34.656704 -6.067400
				}
			}
		}
	}
	JOINT Hips_RightUpLeg
	{
		OFFSET 0.000000 0.000000 0.000000
		CHANNELS 3 Zrotation Yrotation Xrotation
		JOINT RightUpLeg
		{
			OFFSET -6.876100 -6.733299 0.301000
			CHANNELS 3 Zrotation Yrotation Xrotation
			JOINT RightLeg
			{
				OFFSET 0.347353 -34.795158 -4.515900
				CHANNELS 3 Zrotation Yrotation Xrotation
				End Site #name: RightFoot
				{
					OFFSET -0.347353 -34.589367 -6.070300
				}
			}
		}
	}
}
MOTION
Frames: 19
Frame Time: 0.041667
-0.174642 0.165101 -1.362756 -3.971368 2.005598 -1.169288 0.000000 0.000000 0.000000 3.498996 -0.455078 21.874849 0.166064 0.275949 3.034114 0.000000 0.000000 0.000000 0.321608 0.285515 2.108306 1.143324 -0.672931 9.521529 0.518100 0.340656 2.532520 -6.199868 1.755063 -1.154210 -68.344810 -2.627767 5.309359 0.185046 -33.012374 0.877173 0.177961 0.418831 2.802620 4.211568 -7.686269 0.103373 73.765441 9.595661 5.633597 179.648832 72.142036 179.563689 -0.000000 0.000000 0.000000 7.752718 7.325559 -70.398787 5.143420 -4.891225 63.122403 0.000000 0.000000 0.000000 -6.955004 -7.619745 -64.279108 -0.134406 -0.834531 65.837078 
-0.182869 0.170029 -1.402074 -3.955038 1.995284 -1.162651 0.000000 0.000000 0.000000 3.503574 -0.448659 21.869116 0.173165 0.274448 3.049540 0.000000 0.000000 0.000000 0.332849 0.282459 2.129339 1.143959 -0.668710 9.497481 0.526722 0.338758 2.549439 -6.205997 1.685027 -1.142878 -68.314141 -2.669016 5.172263 0.184099 -32.913997 0.875837 0.184026 0.421341 2.822254 4.220212 -7.622036 0.106029 73.845463 9.603308 5.854609 179.634315 73.320568 179.550061 -0.000000 0.000000 0.000000 7.749589 7.325211 -70.401157 5.147805 -4.891892 63.112576 0.000000 0.000000 0.000000 -6.952196 -7.622143 -64.279168 -0.135935 -0.837348 65.834473 
-0.190142 0.174601 -1.440887 -3.939396 1.984667 -1.157485 0.000000 0.000000 0.000000 3.509713 -0.439371 21.861967 0.181969 0.273086 3.065310 0.000000 0.000000 0.000000 0.345780 0.279204 2.152479 1.142220 -0.662703 9.469656 0.536070 0.337159 2.567628 -6.210331 1.595466 -1.128012 -68.282691 -2.717835 5.014176 0.184107 -32.787501 0.873939 0.191103 0.424520 2.843834 4.225270 -7.538513 0.109985 73.939202 9.618481 6.147224 179.593868 74.997231 179.514590 -0.000000 0.000000 0.000000 7.747353 7.325227 -70.397865 5.156653 -4.889355 63.096970 0.000000 0.000000 0.000000 -6.953377 -7.624162 -64.273154 -0.137152 -0.837931 65.832691 
-0.196387 0.178748 -1.479300 -3.925114 1.974958 -1.151475 0.000000 -0.000000 0.000000 3.516912 -0.427658 21.847697 0.191855 0.271777 3.081068 0.000000 0.000000 0.000000 0.360781 0.275714 2.177937 1.140725 -0.656142 9.433074 0.546693 0.335196 2.586799 -6.218496 1.490109 -1.108092 -68.253557 -2.777624 4.860283 0.183161 -32.657408 0.872398 0.205797 0.424171 2.868604 4.228627 -7.425317 0.106362 74.052895 9.679344 6.515667 179.516362 77.228595 179.444123 -0.000000 0.000000 0.000000 7.741921 7.329094 -70.391215 5.162580 -4.889182 63.081944 0.000000 0.000000 0.000000 -6.953042 -7.624515 -64.263606 -0.138399 -0.839652 65.825442 
-0.201553 0.182560 -1.517367 -3.912394 1.965310 -1.143310 0.000000 -0.000000 0.000000 3.528466 -0.413638 21.834707 0.202977 0.270481 3.097845 0.000000 0.000000 0.000000 0.377087 0.272236 2.204930 1.138131 -0.648569 9.390385 0.559201 0.333248 2.608298 -6.231296 1.368101 -1.086965 -68.203363 -2.844152 4.661178 0.182970 -32.509351 0.871176 0.222980 0.423851 2.896401 4.232573 -7.283293 0.078903 74.220706 9.762727 7.056970 179.356527 80.064226 179.292077 -0.000000 0.000000 0.000000 7.739047 7.330948 -70.387079 5.171674 -4.888583 63.065219 0.000000 0.000000 0.000000 -6.951790 -7.624944 -64.255163 -0.139429 -0.842636 65.816696 
-0.205592 0.186184 -1.555107 -3.901747 1.956246 -1.134570 0.000000 -0.000000 0.000000 3.540501 -0.397323 21.816063 0.215140 0.270448 3.116464 0.000000 0.000000 0.000000 0.394605 0.269394 2.234346 1.132288 -0.641032 9.343335 0.571453 0.332154 2.628856 -6.237914 1.234990 -1.063492 -68.158106 -2.922301 4.485524 0.182640 -32.332833 0.869853 0.241689 0.424307 2.926633 4.251645 -7.146389 0.045005 74.460617 9.840528 7.915088 178.964467 83.554300 178.910403 -0.000000 0.000000 0.000000 7.736160 7.336811 -70.386591 5.178364 -4.887495 63.049557 0.000000 0.000000 0.000000 -6.949311 -7.624851 -64.247683 -0.139622 -0.843443 65.805131 
-0.208608 0.189474 -1.592556 -3.893071 1.949431 -1.128205 0.000000 -0.000000 0.000000 3.552668 -0.371140 21.791907 0.227404 0.271524 3.135223 0.000000 0.000000 0.000000 0.412967 0.267490 2.264103 1.127395 -0.632871 9.291150 0.584980 0.331769 2.651848 -6.251348 1.087797 -1.035318 -68.104560 -3.005796 4.278522 0.181779 -32.150772 0.868652 0.262522 0.426689 2.963832 4.322969 -7.035318 0.012685 74.677011 9.991757 8.850003 177.331161 87.334268 177.293272 -0.000000 0.000000 0.000000 7.734031 7.340778 -70.388432 5.187437 -4.883829 63.038169 0.000000 0.000000 0.000000 -6.947419 -7.624486 -64.241465 -0.139056 -0.844747 65.795172 
-0.210517 0.192601 -1.629737 -3.887214 1.941487 -1.119479 0.000000 -0.000000 0.000000 3.565357 -0.342092 21.759670 0.240194 0.273775 3.154159 0.000000 0.000000 0.000000 0.432117 0.266013 2.295397 1.119830 -0.624613 9.237917 0.598514 0.332285 2.675874 -6.253114 0.931152 -1.005970 -68.052077 -3.097058 4.052955 0.181442 -31.949876 0.867376 0.286472 0.429431 3.005216 4.443140 -6.994166 -0.009366 74.869758 10.308437 9.756846 5.622864 88.654557 5.605267 -0.000000 0.000000 0.000000 7.731744 7.345227 -70.392411 5.197756 -4.879795 63.029948 0.000000 0.000000 0.000000 -6.944228 -7.624172 -64.239939 -0.141145 -0.846357 65.785919 
-0.211349 0.195623 -1.666707 -3.883905 1.937519 -1.111132 0.000000 -0.000000 0.000000 3.573357 -0.304830 21.725706 0.255120 0.277048 3.175975 0.000000 0.000000 0.000000 0.453894 0.265806 2.327944 1.113741 -0.614360 9.179282 0.613991 0.332443 2.700592 -6.269111 0.766249 -0.974231 -67.995563 -3.194101 3.828232 0.181130 -31.714893 0.865729 0.312367 0.430569 3.045890 4.625189 -6.987923 -0.030339 75.182190 10.813823 10.731129 1.397084 84.505636 1.399918 -0.000000 0.000000 0.000000 7.730862 7.350786 -70.398713 5.207945 -4.874427 63.025402 0.000000 0.000000 0.000000 -6.941308 -7.622374 -64.235275 -0.141596 -0.846820 65.775713 
-0.211191 0.198585 -1.703431 -3.882613 1.932356 -1.103790 0.000000 -0.000000 0.000000 3.584253 -0.267216 21.684061 0.272791 0.280522 3.200142 0.000000 0.000000 0.000000 0.479763 0.266678 2.362298 1.107036 -0.602570 9.119919 0.633271 0.332960 2.728786 -6.276892 0.595058 -0.939351 -67.933707 -3.287420 3.603260 0.180152 -31.494558 0.866863 0.341024 0.431912 3.088615 4.841588 -7.022187 -0.046101 75.462528 11.457125 11.755824 0.799056 80.125944 0.823002 -0.000000 0.000000 0.000000 7.728090 7.357566 -70.409676 5.221825 -4.868316 63.020245 0.000000 0.000000 0.000000 -6.935736 -7.622598 -64.232959 -0.144479 -0.849984 65.763082 
-0.210081 0.201550 -1.739994 -3.881533 1.931329 -1.095682 0.000000 -0.000000 0.000000 3.595593 -0.226643 21.624886 0.292871 0.283354 3.223343 0.000000 0.000000 0.000000 0.508913 0.267129 2.399347 1.101746 -0.588867 9.062471 0.655778 0.334156 2.756378 -6.282278 0.427461 -0.907791 -67.874871 -3.389690 3.358010 0.180177 -31.232893 0.865531 0.374526 0.432955 3.134142 5.149497 -7.023363 -0.055370 75.767287 12.183201 12.829608 0.517594 74.572893 0.554809 -0.000000 0.000000 0.000000 7.726516 7.363978 -70.417515 5.237434 -4.861268 63.010932 0.000000 0.000000 0.000000 -6.935427 -7.623482 -64.228708 -0.144316 -0.851209 65.754114 
-0.208027 0.204520 -1.776433 -3.882462 1.931772 -1.084051 0.000000 -0.000000 0.000000 3.603116 -0.184441 21.546339 0.313586 0.284590 3.243274 0.000000 0.000000 0.000000 0.539432 0.268102 2.435008 1.099775 -0.574996 9.007267 0.678415 0.335725 2.783662 -6.285755 0.261919 -0.875049 -67.814365 -3.485773 3.125252 0.180040 -30.977840 0.864820 0.411500 0.432049 3.176415 5.483995 -7.022457 -0.062479 76.057458 12.746930 13.777475 0.376688 68.611632 0.430345 -0.000000 0.000000 0.000000 7.723478 7.371035 -70.428569 5.253439 -4.853080 63.004222 0.000000 0.000000 0.000000 -6.932258 -7.622045 -64.218140 -0.142895 -0.853302 65.735579 
-0.205055 0.207634 -1.812763 -3.882161 1.931818 -1.071114 0.000000 -0.000000 0.000000 3.611133 -0.143446 21.459559 0.334936 0.285499 3.266428 0.000000 0.000000 0.000000 0.570819 0.269412 2.470793 1.100411 -0.559788 8.952366 0.703513 0.335736 2.812068 -6.287410 0.109913 -0.844008 -67.751338 -3.572188 2.912042 0.179037 -30.709141 0.865122 0.450271 0.430402 3.216799 5.833282 -7.015977 -0.067308 76.312745 13.393861 14.955001 0.294112 62.593688 0.367122 -0.000000 0.000000 0.000000 7.718595 7.376598 -70.445496 5.271785 -4.843573 63.007196 0.000000 0.000000 0.000000 -6.930305 -7.621996 -64.204685 -0.144089 -0.856917 65.714339 
-0.201082 0.210918 -1.849128 -3.882606 1.935188 -1.058360 0.000000 -0.000000 0.000000 3.616527 -0.102763 21.352456 0.356213 0.285574 3.288141 0.000000 0.000000 0.000000 0.603102 0.271597 2.504877 1.099885 -0.542724 8.900755 0.731719 0.334943 2.840389 -6.300809 -0.033979 -0.813876 -67.691037 -3.647101 2.705673 0.180365 -30.437653 0.864605 0.488206 0.430907 3.256209 6.196840 -6.983130 -0.070012 76.420253 13.971693 16.452691 0.228792 57.413167 0.301509 -0.000000 0.000000 0.000000 7.711216 7.383758 -70.467119 5.292601 -4.832040 63.011138 0.000000 0.000000 0.000000 -6.928743 -7.621033 -64.194675 -0.144577 -0.858040 65.700570 
-0.196051 0.214432 -1.885504 -3.882508 1.938540 -1.046130 0.000000 -0.000000 0.000000 3.621533 -0.061765 21.232123 0.377863 0.285848 3.310762 0.000000 0.000000 0.000000 0.635030 0.274436 2.536766 1.100013 -0.523897 8.849832 0.759521 0.334768 2.867230 -6.311860 -0.165913 -0.786384 -67.621200 -3.694483 2.500093 0.180034 -30.187803 0.864639 0.525000 0.432157 3.297451 6.553662 -6.926562 -0.075109 76.452135 14.507928 17.883077 0.192303 53.704819 0.247073 -0.000000 0.000000 0.000000 7.703196 7.389995 -70.497212 5.315240 -4.817462 63.023329 0.000000 0.000000 0.000000 -6.927455 -7.620926 -64.179658 -0.144593 -0.859249 65.677265 
-0.189821 0.218303 -1.921897 -3.883652 1.942500 -1.033010 0.000000 -0.000000 0.000000 3.622040 -0.019969 21.097916 0.397904 0.286056 3.329114 0.000000 0.000000 0.000000 0.665017 0.278572 2.565408 1.101492 -0.505654 8.804316 0.785198 0.336169 2.892200 -6.320866 -0.279842 -0.760290 -67.566291 -3.751082 2.315401 0.180752 -29.948939 0.864801 0.560211 0.432416 3.329385 6.868684 -6.836321 -0.082104 76.376656 15.007122 19.151513 0.169269 50.257028 0.206543 -0.000000 0.000000 0.000000 7.691644 7.398720 -70.528202 5.338344 -4.802211 63.038814 0.000000 0.000000 0.000000 -6.928286 -7.624784 -64.153174 -0.144395 -0.860798 65.651503 
-0.182344 0.222597 -1.958423 -3.885804 1.945934 -1.018360 0.000000 -0.000000 0.000000 3.616901 0.026219 20.950830 0.415645 0.286375 3.341587 0.000000 0.000000 0.000000 0.691549 0.284057 2.587606 1.102936 -0.485763 8.762472 0.807647 0.339320 2.912266 -6.328742 -0.383590 -0.737720 -67.517529 -3.806597 2.152585 0.180892 -29.737073 0.865314 0.589242 0.433268 3.353297 7.117174 -6.718697 -0.080551 76.309146 15.481300 20.271525 0.155013 46.916301 0.172297 -0.000000 0.000000 0.000000 7.681773 7.406364 -70.557401 5.363751 -4.782672 63.054244 0.000000 0.000000 0.000000 -6.924814 -7.629222 -64.131504 -0.143721 -0.861228 65.630141 
-0.173475 0.227183 -1.994969 -3.890266 1.949206 -1.005037 0.000000 -0.000000 0.000000 3.601586 0.072872 20.781520 0.432887 0.284356 3.346365 0.000000 0.000000 0.000000 0.713103 0.291332 2.603135 1.108598 -0.464839 8.722604 0.825748 0.344812 2.925010 -6.331728 -0.472584 -0.716924 -67.490350 -3.841291 2.030252 0.179754 -29.490408 0.867092 0.612371 0.436912 3.371545 7.314718 -6.579462 -0.069060 76.308236 15.953307 21.335994 0.154613 44.106166 0.152643 -0.000000 0.000000 0.000000 7.669436 7.418520 -70.589199 5.390424 -4.762952 63.075198 0.000000 0.000000 0.000000 -6.923076 -7.630397 -64.102362 -0.141701 -0.861380 65.604954 
-0.163012 0.232106 -2.031415 -3.896976 1.950454 -0.992003 0.000000 -0.000000 0.000000 3.577590 0.119489 20.602478 0.450589 0.279443 3.346475 0.000000 0.000000 0.000000 0.728873 0.300232 2.610900 1.113655 -0.443117 8.694991 0.839251 0.351646 2.931581 -6.330145 -0.543367 -0.698289 -67.469576 -3.897165 1.888617 0.178876 -29.185468 0.869910 0.630394 0.442646 3.381586 7.486503 -6.446863 -0.059094 76.256208 16.340616 22.182237 0.154951 42.653102 0.127300 -0.000000 0.000000 0.000000 7.656234 7.430321 -70.625898 5.416173 -4.742222 63.101724 0.000000 0.000000 0.000000 -6.921404 -7.631655 -64.078602 -0.139498 -0.860406 65.582923 
